<svg width="33" height="33" viewBox="0 0 33 33" fill="none" xmlns="http://www.w3.org/2000/svg">
<circle cx="15.5" cy="16.5" r="15.5" fill="#2C70FF"/>
<path d="M5.573 20.088C5.34567 20.088 5.166 20.0257 5.034 19.901C4.90933 19.769 4.847 19.582 4.847 19.34V12.993C4.847 12.751 4.90933 12.5677 5.034 12.443C5.166 12.311 5.353 12.245 5.595 12.245H9.434C9.62467 12.245 9.76767 12.2927 9.863 12.388C9.95833 12.4833 10.006 12.619 10.006 12.795C10.006 12.9783 9.95833 13.1213 9.863 13.224C9.76767 13.3193 9.62467 13.367 9.434 13.367H6.255V15.556H9.203C9.38633 15.556 9.52567 15.6037 9.621 15.699C9.72367 15.7943 9.775 15.93 9.775 16.106C9.775 16.2893 9.72367 16.4323 9.621 16.535C9.52567 16.6303 9.38633 16.678 9.203 16.678H6.255V19.34C6.255 19.8387 6.02767 20.088 5.573 20.088ZM13.1692 20.11C12.5605 20.11 12.1022 19.9377 11.7942 19.593C11.4862 19.241 11.3322 18.7277 11.3322 18.053V12.85C11.3322 12.6227 11.3909 12.4503 11.5082 12.333C11.6255 12.2157 11.7942 12.157 12.0142 12.157C12.2342 12.157 12.4029 12.2157 12.5202 12.333C12.6449 12.4503 12.7072 12.6227 12.7072 12.85V17.987C12.7072 18.3243 12.7769 18.5737 12.9162 18.735C13.0629 18.8963 13.2682 18.977 13.5322 18.977C13.5909 18.977 13.6459 18.977 13.6972 18.977C13.7485 18.9697 13.7999 18.9623 13.8512 18.955C13.9539 18.9403 14.0235 18.9697 14.0602 19.043C14.0969 19.109 14.1152 19.2483 14.1152 19.461C14.1152 19.6443 14.0785 19.7873 14.0052 19.89C13.9319 19.9927 13.8109 20.055 13.6422 20.077C13.5689 20.0843 13.4919 20.0917 13.4112 20.099C13.3305 20.1063 13.2499 20.11 13.1692 20.11ZM17.4422 20.11C16.8335 20.11 16.3092 19.9963 15.8692 19.769C15.4292 19.5417 15.0882 19.219 14.8462 18.801C14.6115 18.383 14.4942 17.888 14.4942 17.316C14.4942 16.7587 14.6078 16.271 14.8352 15.853C15.0698 15.435 15.3888 15.1087 15.7922 14.874C16.2028 14.632 16.6685 14.511 17.1892 14.511C17.5705 14.511 17.9115 14.5733 18.2122 14.698C18.5202 14.8227 18.7805 15.0023 18.9932 15.237C19.2132 15.4717 19.3782 15.7577 19.4882 16.095C19.6055 16.425 19.6642 16.799 19.6642 17.217C19.6642 17.349 19.6165 17.4517 19.5212 17.525C19.4332 17.591 19.3048 17.624 19.1362 17.624H15.6052V16.832H18.6962L18.5202 16.997C18.5202 16.6597 18.4688 16.3773 18.3662 16.15C18.2708 15.9227 18.1278 15.7503 17.9372 15.633C17.7538 15.5083 17.5228 15.446 17.2442 15.446C16.9362 15.446 16.6722 15.5193 16.4522 15.666C16.2395 15.8053 16.0745 16.007 15.9572 16.271C15.8472 16.5277 15.7922 16.8357 15.7922 17.195V17.272C15.7922 17.8733 15.9315 18.3243 16.2102 18.625C16.4962 18.9183 16.9142 19.065 17.4642 19.065C17.6548 19.065 17.8675 19.043 18.1022 18.999C18.3442 18.9477 18.5715 18.8633 18.7842 18.746C18.9382 18.658 19.0738 18.6213 19.1912 18.636C19.3085 18.6433 19.4002 18.6837 19.4662 18.757C19.5395 18.8303 19.5835 18.922 19.5982 19.032C19.6128 19.1347 19.5908 19.241 19.5322 19.351C19.4808 19.461 19.3892 19.5563 19.2572 19.637C19.0005 19.7983 18.7035 19.9193 18.3662 20C18.0362 20.0733 17.7282 20.11 17.4422 20.11ZM21.0949 20.055C20.9335 20.055 20.7979 20.011 20.6879 19.923C20.5852 19.8277 20.5302 19.7067 20.5229 19.56C20.5229 19.4133 20.5852 19.2593 20.7099 19.098L22.4919 16.898V17.547L20.8199 15.49C20.6879 15.3287 20.6255 15.1747 20.6329 15.028C20.6402 14.8813 20.6952 14.764 20.7979 14.676C20.9079 14.5807 21.0435 14.533 21.2049 14.533C21.3735 14.533 21.5129 14.5623 21.6229 14.621C21.7402 14.6797 21.8465 14.7713 21.9419 14.896L23.2619 16.59H22.7779L24.1089 14.896C24.2115 14.7713 24.3179 14.6797 24.4279 14.621C24.5379 14.5623 24.6735 14.533 24.8349 14.533C25.0035 14.533 25.1392 14.5807 25.2419 14.676C25.3445 14.7713 25.3959 14.8923 25.3959 15.039C25.4032 15.1857 25.3409 15.3397 25.2089 15.501L23.5479 17.536V16.92L25.3299 19.098C25.4619 19.252 25.5242 19.4023 25.5169 19.549C25.5095 19.6957 25.4509 19.8167 25.3409 19.912C25.2382 20.0073 25.1025 20.055 24.9339 20.055C24.7725 20.055 24.6369 20.0257 24.5269 19.967C24.4169 19.9083 24.3105 19.8167 24.2079 19.692L22.7779 17.888H23.2399L21.8209 19.692C21.7255 19.8093 21.6229 19.901 21.5129 19.967C21.4029 20.0257 21.2635 20.055 21.0949 20.055Z" fill="white"/>
</svg>
